<svg width="59" height="51" viewBox="0 0 59 51" fill="none" xmlns="http://www.w3.org/2000/svg">
<path d="M45.4319 35.5344V14.5262C43.6064 13.9568 41.5319 13.6722 39.2085 13.6722C35.6128 13.6722 32.3766 14.5831 29.5 16.405V37.3278C32.3766 35.506 35.6128 34.595 39.2085 34.595C41.366 34.595 43.4404 34.9082 45.4319 35.5344ZM39.2085 10C43.4128 10 46.6766 10.9109 49 12.7328V39.292C49 39.5197 48.8894 39.7475 48.6681 39.9752C48.5021 40.146 48.3085 40.2314 48.0872 40.2314C47.9213 40.2314 47.783 40.2029 47.6723 40.146C45.4043 38.8935 42.583 38.2672 39.2085 38.2672C35.6128 38.2672 32.3766 39.1781 29.5 41C27.1213 39.1781 23.8851 38.2672 19.7915 38.2672C16.8043 38.2672 13.983 38.9219 11.3277 40.2314C11.2723 40.2314 11.1894 40.2599 11.0787 40.3168C11.0234 40.3168 10.9681 40.3168 10.9128 40.3168C10.6915 40.3168 10.4702 40.2314 10.2489 40.0606C10.083 39.8898 10 39.6905 10 39.4628V12.7328C12.3787 10.9109 15.6426 10 19.7915 10C23.8851 10 27.1213 10.9109 29.5 12.7328C31.8787 10.9109 35.1149 10 39.2085 10Z" fill="white"/>
</svg>
